<?xml version="1.0" standalone="no"?>
<!DOCTYPE svg PUBLIC "-//W3C//DTD SVG 20010904//EN"
 "http://www.w3.org/TR/2001/REC-SVG-20010904/DTD/svg10.dtd">
<svg version="1.0" xmlns="http://www.w3.org/2000/svg"
 width="1000.000000pt" height="1000.000000pt" viewBox="0 0 1000.000000 1000.000000"
 preserveAspectRatio="xMidYMid meet">

<g transform="translate(0.000000,1000.000000) scale(0.100000,-0.100000)"
fill="#000000" stroke="none">
<path d="M5685 7786 c-68 -31 -130 -101 -149 -167 -9 -29 -16 -86 -16 -126 l0
-73 -1957 -2 -1958 -3 -41 -22 c-22 -12 -57 -40 -78 -63 -69 -76 -70 -85 -74
-382 l-3 -268 100 0 101 0 -2 -507 -3 -508 -97 -3 -98 -3 0 -369 0 -370 100 0
100 0 0 -1090 0 -1090 -197 -2 -198 -3 -3 -272 -2 -273 3790 0 3790 0 -2 273
-3 272 -185 2 -185 2 -5 2444 -5 2444 -30 48 c-35 57 -100 110 -153 125 -24 6
-449 10 -1262 10 l-1225 0 -50 -24z m2519 -149 c60 -40 56 131 56 -2492 l0
-2405 -120 0 -120 0 0 868 0 867 -24 50 c-29 63 -77 112 -136 139 -45 21 -54
21 -895 21 l-850 0 -55 -30 c-30 -17 -69 -49 -87 -73 -65 -85 -63 -57 -63
-994 l0 -848 -115 0 -115 0 2 2424 c3 2408 3 2424 23 2446 46 51 -5 50 1275
47 1139 -2 1197 -3 1224 -20z m-3936 -377 l1242 0 0 -210 0 -210 -1971 0
-1970 0 3 180 3 180 28 27 27 28 608 5 c334 3 648 4 697 3 50 -1 649 -3 1333
-3z m-1870 -1087 l-3 -508 -315 0 -315 0 -3 495 c-1 272 0 501 3 508 3 9 77
12 320 12 l315 0 -2 -507z m1560 0 l-3 -508 -700 0 -700 0 -3 495 c-1 272 0
501 3 508 3 9 154 12 705 12 l700 0 -2 -507z m1552 -3 l0 -510 -695 0 -695 0
0 510 0 510 695 0 695 0 0 -510z m0 -875 l0 -215 -1970 0 -1970 0 0 215 0 215
1970 0 1970 0 0 -215z m-3110 -1465 l0 -1090 -320 0 -320 0 0 1090 0 1090 320
0 320 0 0 -1090z m1560 0 l0 -1090 -705 0 -705 0 0 1090 0 1090 705 0 705 0 0
-1090z m1550 0 l0 -1090 -695 0 -695 0 0 1090 0 1090 695 0 695 0 0 -1090z
m1380 -195 l0 -895 -410 0 -410 0 0 850 c0 740 2 855 15 880 30 58 35 59 438
60 l367 0 0 -895z m925 873 c57 -44 55 -16 55 -928 l0 -840 -410 0 -410 0 0
895 0 895 369 0 c363 0 369 0 396 -22z m815 -2048 l0 -120 -3630 0 -3630 0 0
120 0 120 3630 0 3630 0 0 -120z"/>
<path d="M6332 7427 c-42 -13 -112 -75 -137 -121 -16 -29 -26 -36 -60 -42
-101 -15 -194 -99 -214 -194 -12 -55 -16 -815 -5 -883 17 -99 111 -191 209
-205 42 -6 51 -12 68 -42 45 -83 115 -129 206 -137 68 -5 115 16 148 66 22 33
23 41 23 287 l0 254 395 0 394 0 3 -254 c3 -283 3 -283 78 -333 86 -59 246 1
300 112 20 41 25 45 58 45 79 0 185 85 210 168 17 56 17 889 0 944 -6 22 -31
62 -55 88 -41 46 -74 64 -160 87 -22 5 -41 23 -65 58 -93 139 -287 155 -348
30 -18 -38 -20 -62 -20 -283 l0 -242 -395 0 -395 0 0 253 c0 234 -2 254 -20
285 -40 65 -126 89 -218 59z m88 -802 c0 -631 -1 -665 -18 -665 -26 0 -58 25
-71 57 -8 21 -11 188 -9 620 3 575 4 592 23 613 18 20 48 38 68 39 4 1 7 -298
7 -664z m1175 622 c13 -18 15 -108 15 -628 l0 -606 -26 -27 c-15 -14 -35 -26
-45 -26 -18 0 -19 23 -19 664 l0 665 30 -11 c17 -5 37 -20 45 -31z m-1435
-627 c0 -269 -3 -490 -6 -490 -17 0 -64 36 -73 57 -15 34 -15 836 0 866 13 26
49 56 67 57 9 0 12 -105 12 -490z m1672 461 l33 -29 3 -404 c2 -262 0 -416 -7
-439 -12 -39 -34 -63 -68 -73 l-23 -7 0 490 c0 543 -3 520 62 462z m-472 -461
l0 -50 -395 0 -395 0 0 50 0 50 395 0 395 0 0 -50z"/>
<path d="M6135 5496 c-140 -65 -196 -230 -138 -410 22 -68 92 -137 162 -161
40 -13 75 -16 142 -13 76 4 97 9 156 39 l68 34 3 128 3 127 -131 0 -130 0 0
-50 0 -49 68 -3 67 -3 0 -39 c0 -34 -5 -43 -32 -59 -48 -28 -131 -33 -177 -12
-62 29 -89 82 -94 178 -3 71 0 88 20 126 30 58 65 83 125 88 63 6 118 -16 141
-57 16 -30 19 -31 67 -25 63 8 71 16 55 55 -37 89 -112 130 -240 130 -68 0
-95 -5 -135 -24z"/>
<path d="M6650 5506 c0 -2 47 -79 105 -170 l105 -165 0 -126 0 -125 60 0 60 0
0 122 0 121 77 121 c42 67 92 145 110 174 l34 52 -70 0 -70 0 -60 -102 c-33
-57 -63 -109 -68 -116 -5 -9 -30 23 -77 102 l-68 116 -69 0 c-38 0 -69 -2 -69
-4z"/>
<path d="M7320 5215 l0 -295 55 0 55 0 0 222 c0 122 3 219 6 215 5 -5 68 -243
108 -409 6 -27 9 -28 66 -28 l59 0 10 38 c6 20 28 111 51 202 22 91 45 174 50
185 5 13 9 -60 9 -202 l1 -223 55 0 55 0 0 295 0 296 -92 -3 -92 -3 -51 -194
c-29 -107 -54 -191 -57 -185 -3 5 -27 93 -54 196 l-49 188 -92 0 -93 0 0 -295z"/>
<path d="M6595 3923 c-48 -25 -91 -71 -104 -111 -9 -26 -11 -106 -9 -264 3
-253 2 -248 82 -312 33 -27 47 -31 112 -34 l74 -4 0 81 0 81 -50 0 c-38 0 -52
4 -60 19 -6 12 -10 92 -10 191 0 99 4 179 10 191 8 15 22 19 60 19 l50 0 0 80
0 80 -62 0 c-37 -1 -75 -7 -93 -17z"/>
<path d="M7142 3864 l3 -79 50 -3 c27 -2 53 -9 57 -15 4 -7 8 -95 8 -197 0
-102 -4 -190 -8 -197 -4 -6 -30 -13 -57 -15 l-50 -3 -3 -79 -3 -78 74 3 c89 5
144 36 179 102 22 40 23 52 23 267 0 215 -1 227 -23 267 -35 66 -90 97 -179
102 l-74 3 3 -78z"/>
<path d="M235 2280 c-4 -6 -16 -8 -26 -5 -35 11 -69 -42 -39 -60 20 -12 93
-15 107 -4 18 15 16 44 -3 63 -18 19 -30 20 -39 6z m-27 -37 c-4 -22 -22 -20
-26 1 -2 10 3 16 13 16 10 0 15 -7 13 -17z m60 0 c-2 -10 -10 -18 -18 -18 -8
0 -16 8 -18 18 -2 12 3 17 18 17 15 0 20 -5 18 -17z"/>
<path d="M160 2162 c0 -5 7 -17 15 -28 13 -17 14 -17 15 -1 0 14 9 17 50 17
28 0 50 5 50 10 0 6 -28 10 -65 10 -36 0 -65 -4 -65 -8z"/>
<path d="M160 2092 c0 -5 7 -17 15 -28 13 -17 14 -17 15 -1 0 14 9 17 50 17
28 0 50 5 50 10 0 6 -28 10 -65 10 -36 0 -65 -4 -65 -8z"/>
<path d="M160 2022 c0 -5 7 -17 15 -28 13 -17 14 -17 15 -1 0 14 9 17 50 17
28 0 50 5 50 10 0 6 -28 10 -65 10 -36 0 -65 -4 -65 -8z"/>
<path d="M270 1945 l0 -25 -20 20 c-11 11 -33 20 -50 20 -23 0 -31 -5 -36 -24
-6 -25 1 -46 15 -46 4 0 7 10 7 23 -1 32 34 34 64 2 32 -34 40 -32 40 15 0 22
-4 40 -10 40 -5 0 -10 -11 -10 -25z"/>
<path d="M235 1860 c-4 -6 -16 -8 -26 -5 -35 11 -69 -42 -39 -60 20 -12 93
-15 107 -4 18 15 16 44 -3 63 -18 19 -30 20 -39 6z m-27 -37 c-4 -22 -22 -20
-26 1 -2 10 3 16 13 16 10 0 15 -7 13 -17z m60 0 c-2 -10 -10 -18 -18 -18 -8
0 -16 8 -18 18 -2 12 3 17 18 17 15 0 20 -5 18 -17z"/>
<path d="M177 1742 c-22 -24 -21 -35 1 -55 25 -22 75 -21 95 1 23 25 21 38 -5
56 -30 21 -71 20 -91 -2z m77 -8 c24 -9 19 -33 -8 -40 -31 -7 -66 3 -66 21 0
21 41 32 74 19z"/>
<path d="M160 1616 c0 -24 5 -36 14 -36 8 0 20 -2 28 -5 8 -3 18 6 25 26 14
37 38 34 38 -4 -1 -15 3 -27 7 -27 16 0 21 31 9 56 -15 33 -51 29 -69 -9 -14
-29 -32 -28 -32 3 0 10 -4 22 -10 25 -6 4 -10 -8 -10 -29z"/>
<path d="M188 1543 c-19 -5 -34 -45 -23 -62 11 -18 22 -12 21 12 -1 32 34 34
64 2 32 -34 40 -32 40 15 0 22 -4 40 -10 40 -5 0 -10 -12 -10 -27 -1 -24 -2
-26 -13 -12 -17 22 -49 36 -69 32z"/>
<path d="M196 1451 c-4 -6 -12 -9 -17 -6 -5 4 -9 2 -9 -4 0 -5 6 -12 13 -15 9
-5 9 -7 0 -12 -10 -4 -9 -9 2 -20 8 -9 20 -12 26 -8 6 3 14 1 18 -5 5 -8 15
-9 31 -3 19 7 21 10 7 15 -23 9 -22 28 1 20 12 -4 11 0 -7 17 -17 17 -25 20
-31 10 -6 -9 -10 -8 -17 5 -7 12 -12 14 -17 6z m39 -41 c-3 -5 -10 -10 -16
-10 -5 0 -9 5 -9 10 0 6 7 10 16 10 8 0 12 -4 9 -10z"/>
<path d="M140 1280 c0 -6 38 -10 95 -10 57 0 95 4 95 10 0 6 -38 10 -95 10
-57 0 -95 -4 -95 -10z"/>
<path d="M261 1189 c-22 -18 -25 -19 -42 -3 -11 10 -22 14 -27 10 -4 -4 4 -16
17 -27 l23 -19 -46 0 c-34 0 -46 -4 -46 -15 0 -12 15 -15 75 -15 60 0 75 3 75
15 0 9 -9 15 -22 15 l-23 0 24 19 c13 10 22 23 20 29 -2 6 -14 3 -28 -9z"/>
<path d="M190 1081 c0 -27 27 -51 55 -51 24 0 45 25 45 54 0 25 -18 19 -22 -6
-2 -17 -10 -23 -28 -23 -18 0 -26 6 -28 23 -4 27 -22 30 -22 3z"/>
<path d="M206 994 c-19 -18 -20 -28 -6 -55 21 -39 90 -16 90 30 0 16 -30 41
-50 41 -10 0 -26 -7 -34 -16z m59 -29 c0 -22 -31 -33 -47 -17 -17 17 -1 44 24
40 15 -2 23 -10 23 -23z"/>
<path d="M190 900 c0 -5 -7 -10 -15 -10 -8 0 -15 -4 -15 -10 0 -5 6 -10 14
-10 8 0 17 -6 20 -12 5 -10 7 -10 12 0 3 6 21 12 40 12 34 0 56 22 39 38 -4 4
-10 1 -12 -5 -5 -15 -63 -18 -63 -3 0 6 -4 10 -10 10 -5 0 -10 -4 -10 -10z"/>
<path d="M212 810 c-19 -34 -35 -34 -40 -2 -5 30 -22 28 -22 -2 0 -50 54 -61
77 -16 17 34 38 32 38 -3 -1 -32 18 -31 23 2 8 53 -49 69 -76 21z"/>
<path d="M200 675 c-22 -26 3 -65 40 -65 35 0 58 36 45 67 -7 16 -9 15 -13 -7
-6 -40 -22 -48 -22 -12 0 25 -4 32 -19 32 -10 0 -24 -7 -31 -15z m30 -26 c0
-11 -4 -17 -10 -14 -5 3 -10 13 -10 21 0 8 5 14 10 14 6 0 10 -9 10 -21z"/>
<path d="M197 561 c-8 -22 -18 -31 -34 -31 -14 0 -23 -6 -23 -15 0 -23 138
-22 147 2 10 26 -19 68 -50 71 -24 3 -30 -2 -40 -27z m57 3 c28 -11 18 -34
-14 -34 -18 0 -30 5 -30 13 0 25 15 32 44 21z"/>
<path d="M206 464 c-19 -18 -20 -28 -6 -55 21 -39 90 -16 90 30 0 16 -30 41
-50 41 -10 0 -26 -7 -34 -16z m59 -29 c0 -22 -31 -33 -47 -17 -17 17 -1 44 24
40 15 -2 23 -10 23 -23z"/>
<path d="M140 350 c0 -5 11 -10 25 -10 15 0 25 -6 25 -14 0 -45 73 -62 92 -22
20 45 6 56 -72 56 -40 0 -70 -4 -70 -10z m128 -27 c-2 -12 -12 -18 -28 -18
-16 0 -26 6 -28 18 -3 13 3 17 28 17 25 0 31 -4 28 -17z"/>
<path d="M220 246 c-36 -13 -66 -29 -68 -37 -1 -9 20 -21 68 -35 38 -12 70
-17 70 -12 0 6 -9 12 -20 15 -14 4 -20 14 -20 34 0 22 5 29 20 29 11 0 20 7
20 15 0 8 -1 15 -2 14 -2 0 -32 -11 -68 -23z m8 -51 c-7 -7 -48 7 -48 15 0 15
45 16 48 2 2 -8 2 -15 0 -17z"/>
</g>
</svg>
