<?xml version="1.0" standalone="no"?>
<!DOCTYPE svg PUBLIC "-//W3C//DTD SVG 20010904//EN"
 "http://www.w3.org/TR/2001/REC-SVG-20010904/DTD/svg10.dtd">
<svg version="1.0" xmlns="http://www.w3.org/2000/svg"
 width="512.000000pt" height="512.000000pt" viewBox="0 0 512.000000 512.000000"
 preserveAspectRatio="xMidYMid meet">

<g transform="translate(0.000000,512.000000) scale(0.100000,-0.100000)"
fill="#000000" stroke="none">
<path d="M3490 4635 c-25 -8 -57 -26 -72 -39 -38 -34 -147 -184 -154 -212 -11
-44 5 -91 42 -123 l35 -31 280 0 280 0 24 -25 c30 -30 32 -64 4 -99 l-20 -26
-289 0 c-312 0 -359 -5 -456 -51 -111 -52 -223 -192 -240 -300 -6 -33 -11 -39
-52 -55 -25 -9 -66 -35 -90 -58 -43 -39 -92 -120 -92 -151 0 -13 -43 -15 -355
-15 l-355 0 0 69 c0 75 -12 119 -46 169 l-22 34 30 47 c51 84 49 186 -8 269
l-22 34 30 47 c74 120 32 277 -94 346 l-53 30 -605 0 -605 0 -53 -29 c-127
-71 -169 -225 -93 -347 l29 -47 -23 -32 c-55 -75 -58 -188 -6 -272 l30 -47
-20 -25 c-31 -40 -49 -104 -49 -177 l0 -69 -138 0 c-123 0 -142 -2 -182 -22
-67 -35 -80 -69 -80 -213 0 -137 12 -174 69 -212 33 -22 43 -23 237 -23 l203
0 20 26 c28 35 26 69 -4 99 -24 25 -27 25 -200 25 l-175 0 0 85 0 85 1420 0
1420 0 0 -85 0 -85 -1095 0 -1096 0 -24 -25 c-30 -30 -32 -64 -4 -99 l20 -26
424 0 423 0 284 -339 283 -340 5 -68 5 -68 -50 -60 c-444 -528 -1224 -1465
-1233 -1482 -29 -53 -3 -118 56 -142 20 -9 82 -11 193 -9 135 2 171 6 201 21
26 13 108 104 282 313 136 162 246 300 246 308 0 54 -46 94 -94 82 -17 -4 -99
-94 -258 -284 -127 -152 -237 -280 -242 -284 -14 -10 -186 -10 -186 0 0 7
1107 1333 1142 1367 14 14 22 16 25 8 2 -7 27 -29 53 -48 l49 -36 -198 -238
c-109 -130 -203 -247 -210 -259 -24 -45 14 -102 70 -102 33 0 55 24 303 323
104 125 192 227 195 227 4 0 262 -306 575 -679 419 -502 577 -684 604 -698 30
-15 67 -19 201 -21 111 -2 173 0 193 9 59 24 85 89 56 142 -9 17 -648 786
-1208 1452 l-75 90 5 69 5 68 90 108 90 109 233 0 232 1 0 -184 c0 -170 1
-185 21 -210 l20 -26 494 0 494 0 20 26 c19 24 21 40 21 168 0 129 -2 144 -20
164 -28 30 -82 30 -110 0 -17 -19 -20 -35 -20 -115 l0 -93 -385 0 -385 0 0
525 0 525 385 0 385 0 0 -283 c0 -271 1 -284 20 -305 14 -14 33 -22 55 -22 22
0 41 8 55 22 18 19 20 35 20 145 l0 123 194 0 c184 0 195 1 227 23 57 38 69
75 69 212 0 148 -12 178 -86 214 l-49 24 0 121 c0 117 -1 124 -32 187 -63 127
-199 221 -372 257 l-81 17 0 46 c0 66 -34 190 -72 262 -40 76 -144 183 -218
224 -123 70 -160 76 -430 80 -196 2 -254 0 -290 -12z m501 -145 c129 -25 249
-112 305 -221 47 -94 54 -137 54 -361 l0 -208 -349 0 c-337 0 -349 -1 -375
-21 -33 -26 -36 -79 -6 -109 19 -19 33 -20 440 -20 l420 0 0 -50 0 -50 -820 0
c-812 0 -821 0 -810 20 6 10 27 32 47 47 l36 28 196 3 c108 1 206 5 219 8 26
5 52 56 44 86 -2 10 -16 27 -30 38 -22 18 -40 20 -158 20 -74 0 -134 2 -134 5
0 3 11 27 24 53 31 61 88 115 151 144 48 22 63 23 375 28 363 6 355 4 423 79
97 107 65 274 -66 344 -39 21 -58 22 -290 27 l-249 5 36 47 c20 26 44 52 54
57 23 14 393 14 463 1z m-2190 -178 c16 -18 29 -44 29 -58 0 -33 -25 -81 -49
-94 -27 -14 -1155 -14 -1182 0 -23 13 -49 61 -49 93 0 29 34 75 64 87 11 5
277 8 589 7 l569 -2 29 -33z m0 -350 c16 -18 29 -44 29 -58 0 -33 -25 -81 -49
-94 -27 -14 -1155 -14 -1182 0 -23 13 -49 61 -49 93 0 29 34 75 64 87 11 5
277 8 589 7 l569 -2 29 -33z m2776 -96 c179 -48 263 -142 263 -296 0 -125 4
-120 -111 -120 l-99 0 0 100 c0 94 -2 103 -25 125 -18 18 -35 25 -65 25 l-40
0 0 90 c0 101 -3 97 77 76z m-2776 -254 c26 -29 29 -40 29 -97 l0 -65 -640 0
-640 0 0 64 c0 68 20 109 64 126 11 5 277 8 589 7 l569 -2 29 -33z m1759 -627
l0 -315 -210 0 -210 0 0 315 0 315 210 0 210 0 0 -315z m1410 230 l0 -85 -170
0 -170 0 0 85 0 85 170 0 170 0 0 -85z m-2761 -452 l181 -217 -52 -45 c-29
-26 -55 -46 -59 -46 -7 0 -439 513 -439 521 0 2 42 4 94 4 l94 0 181 -217z
m674 203 c-13 -22 -318 -385 -323 -385 -5 0 -310 363 -323 385 -7 12 47 14
323 14 276 0 330 -2 323 -14z m107 -228 l0 -113 -71 -85 c-40 -47 -75 -85 -78
-85 -4 0 -30 20 -59 45 l-52 46 127 152 c69 84 127 152 129 152 2 0 4 -51 4
-112z m-342 -327 c130 -67 149 -231 39 -328 -33 -29 -90 -53 -127 -53 -37 0
-94 24 -127 53 -111 98 -91 260 42 330 42 23 127 21 173 -2z m764 -1086 c315
-376 574 -689 576 -695 2 -6 -30 -10 -87 -10 -89 0 -91 1 -118 31 -16 17 -261
308 -545 647 l-516 617 31 25 c17 14 41 35 52 46 11 12 23 22 27 23 4 1 265
-307 580 -684z"/>
<path d="M2516 2289 c-52 -41 -23 -129 44 -129 67 0 96 88 44 129 -15 12 -34
21 -44 21 -10 0 -29 -9 -44 -21z"/>
</g>
</svg>
