<?xml version="1.0" standalone="no"?>
<!DOCTYPE svg PUBLIC "-//W3C//DTD SVG 20010904//EN"
 "http://www.w3.org/TR/2001/REC-SVG-20010904/DTD/svg10.dtd">
<svg version="1.0" xmlns="http://www.w3.org/2000/svg"
 width="1024.000000pt" height="1024.000000pt" viewBox="0 0 1024.000000 1024.000000"
 preserveAspectRatio="xMidYMid meet">

<g transform="translate(0.000000,1024.000000) scale(0.100000,-0.100000)"
fill="#000000" stroke="none">
<path d="M2424 8175 c-23 -16 -28 -35 -113 -440 -27 -132 -79 -379 -115 -550
-36 -170 -72 -346 -81 -390 -15 -73 -16 -272 -10 -2395 6 -2313 6 -2315 27
-2332 17 -16 43 -18 187 -18 194 0 211 6 211 70 0 61 -21 70 -162 70 l-118 0
0 1125 0 1125 910 0 910 0 -2 -1122 -3 -1123 -128 -5 c-112 -4 -130 -7 -143
-24 -21 -29 -17 -70 9 -94 23 -22 29 -22 336 -22 l312 0 24 25 c30 30 31 54 4
89 -20 26 -22 26 -145 26 l-124 0 0 1125 0 1125 910 0 910 0 -2 -1122 -3
-1123 -127 -5 c-112 -4 -129 -7 -142 -25 -20 -26 -20 -64 0 -90 14 -19 28 -20
334 -23 l320 -3 25 25 c30 31 32 55 4 90 -20 26 -22 26 -145 26 l-124 0 0
1125 0 1125 910 0 910 0 0 -333 c0 -184 -3 -416 -7 -517 -5 -156 -8 -180 -20
-164 -7 10 -14 38 -14 63 l-2 46 -7 -40 -7 -40 -2 45 -3 45 -15 -35 c-63 -141
-70 -386 -14 -475 9 -15 11 -16 7 -3 -6 20 -2 22 22 9 15 -8 17 -2 15 57 -1
37 1 57 4 45 11 -55 23 -14 26 95 2 97 3 90 4 -46 1 -90 4 -166 7 -169 3 -4 6
-192 6 -420 l0 -413 -119 0 c-101 0 -122 -3 -142 -18 -31 -26 -31 -78 0 -104
21 -16 43 -18 191 -18 149 0 170 2 191 19 l23 18 -2 2344 -2 2344 -144 690
c-126 603 -147 691 -166 707 -21 17 -138 18 -2699 18 -2334 0 -2679 -2 -2697
-15z m1136 -152 c0 -15 -7 -81 -15 -148 -14 -112 -24 -202 -90 -772 -46 -400
-53 -443 -80 -490 -94 -159 -340 -163 -432 -6 -47 81 -47 89 12 453 30 184 78
477 106 650 28 173 52 321 54 328 3 9 57 12 225 12 l220 0 0 -27z m1186 -250
c-22 -894 -27 -1052 -37 -1093 -56 -241 -409 -253 -483 -17 -17 53 -16 68 9
419 14 199 34 494 46 653 11 160 22 296 24 303 3 9 58 12 226 12 l222 0 -7
-277z m1194 265 c0 -7 20 -303 44 -658 28 -400 42 -660 37 -685 -11 -59 -35
-98 -86 -143 -54 -48 -116 -67 -191 -59 -98 10 -189 85 -214 176 -7 28 -40
1106 -40 1334 l0 47 225 0 c173 0 225 -3 225 -12z m1212 -158 c15 -91 41 -250
57 -355 17 -104 53 -327 80 -494 45 -277 48 -309 37 -352 -51 -197 -308 -255
-439 -100 -42 50 -55 106 -82 346 -14 127 -32 289 -40 360 -9 72 -31 264 -50
428 -19 164 -35 307 -35 317 0 20 6 20 222 18 l223 -3 27 -165z m-4273 -1419
c28 -27 77 -62 108 -78 53 -25 68 -28 168 -28 104 0 114 2 175 32 36 18 85 52
109 77 l45 45 53 -50 c77 -73 148 -103 255 -107 64 -3 101 1 140 13 64 21 150
76 181 116 l23 29 50 -48 c28 -27 77 -62 110 -78 54 -27 68 -29 169 -29 97 0
116 3 165 26 30 14 80 48 110 76 l55 50 45 -45 c150 -151 395 -152 553 -3 l53
50 45 -45 c24 -25 73 -59 109 -77 61 -30 71 -32 175 -32 100 0 115 3 168 28
31 16 80 51 108 78 l51 50 36 -39 c84 -88 180 -126 310 -120 74 2 97 8 152 35
36 18 85 52 109 77 l45 45 53 -50 c77 -73 148 -103 255 -107 131 -6 217 27
306 117 l39 40 53 -51 c74 -71 144 -101 251 -106 98 -5 173 12 233 53 20 14
39 25 41 25 3 0 5 -362 5 -805 l0 -805 -130 0 -130 0 0 259 c0 246 -1 260 -21
285 l-20 26 -173 0 c-237 0 -216 30 -216 -305 l0 -265 -760 0 -760 0 0 263 c0
251 -1 264 -20 285 -20 21 -29 22 -195 22 l-174 0 -20 -26 c-20 -25 -21 -39
-21 -285 l0 -259 -757 2 -758 3 -2 265 c-3 256 -4 266 -24 283 -18 15 -44 17
-194 17 -162 0 -173 -1 -191 -21 -17 -19 -19 -42 -22 -285 l-3 -264 -574 0
-575 0 0 804 0 804 71 -36 c69 -36 75 -37 178 -37 135 0 195 22 272 99 30 30
55 54 56 55 1 0 24 -21 52 -48z m811 -1426 l0 -215 -70 0 -70 0 0 215 0 215
70 0 70 0 0 -215z m1950 0 l0 -216 -72 3 -73 3 -3 200 c-1 110 0 205 2 212 4
9 28 13 76 13 l70 0 0 -215z m1942 8 c-1 -112 -1 -207 -1 -213 -1 -6 -31 -10
-71 -10 l-70 0 0 215 0 216 71 -3 71 -3 0 -202z m316 -1938 c-3 -3 -9 2 -12
12 -6 14 -5 15 5 6 7 -7 10 -15 7 -18z"/>
<path d="M2540 3900 c-24 -18 -25 -24 -28 -141 -2 -67 -1 -137 3 -155 8 -43
46 -64 115 -64 50 0 54 -3 255 -152 l204 -153 1 -522 0 -523 -124 0 c-123 0
-125 0 -145 -26 -27 -35 -26 -59 4 -89 l24 -25 314 0 314 0 21 23 c25 27 28
63 6 92 -13 18 -30 21 -142 25 l-127 5 -2 515 c-2 283 1 520 5 526 4 6 95 76
204 157 192 144 197 147 247 147 61 0 95 14 110 47 14 30 14 243 1 279 -21 55
2 53 -640 53 -571 1 -596 0 -620 -19z m550 -420 c0 -33 -2 -60 -5 -60 -7 0
-155 111 -155 116 0 2 36 4 80 4 l80 0 0 -60z m295 52 c-56 -48 -144 -110
-149 -105 -3 3 -6 30 -6 60 l0 53 82 0 c45 0 78 -4 73 -8z"/>
<path d="M4506 3899 c-26 -20 -26 -20 -26 -168 0 -177 2 -180 107 -190 l68 -7
197 -148 c192 -144 197 -149 203 -190 3 -22 5 -257 3 -521 l-3 -480 -128 -5
c-112 -4 -130 -7 -143 -24 -21 -29 -17 -70 9 -94 23 -22 29 -22 334 -22 287 0
313 1 334 18 28 23 30 73 4 102 -16 18 -31 20 -142 20 l-123 0 0 524 0 524
198 148 197 148 69 7 c102 9 106 16 106 191 0 134 -1 140 -25 163 l-24 25
-594 0 c-586 0 -595 0 -621 -21z m554 -413 c0 -30 -4 -57 -9 -60 -7 -5 -111
67 -160 110 -2 2 35 4 82 4 l87 0 0 -54z m259 21 c-24 -18 -61 -46 -81 -61
l-38 -28 0 61 0 61 81 0 82 0 -44 -33z"/>
<path d="M6466 3898 c-24 -21 -27 -32 -32 -123 l-7 -100 33 -12 c28 -11 31
-15 20 -28 -7 -8 -21 -15 -32 -15 -15 0 -18 -4 -12 -22 3 -12 16 -30 28 -40
23 -19 66 -24 66 -8 0 6 -9 10 -20 10 -13 0 -20 7 -20 20 0 13 7 20 20 20 13
0 20 7 20 20 0 15 7 20 25 20 18 0 25 -5 25 -20 0 -15 7 -20 25 -20 18 0 25
-5 25 -20 0 -15 -7 -20 -25 -20 -33 0 -32 -11 4 -31 28 -16 28 -16 40 16 31
87 161 62 161 -31 0 -27 -7 -43 -29 -64 l-30 -27 112 -82 c62 -44 120 -87 130
-95 16 -12 17 -50 17 -535 l0 -521 -124 0 c-123 0 -125 0 -145 -26 -27 -35
-26 -59 4 -89 l24 -25 311 0 311 0 24 25 c30 30 31 54 4 89 -20 25 -23 26
-140 26 l-119 0 0 490 c0 476 -1 490 -19 490 -11 0 -28 12 -39 27 -20 28 -42
25 -42 -8 0 -10 -7 -19 -15 -19 -12 0 -15 14 -15 70 0 56 3 70 15 70 10 0 15
-10 15 -32 l0 -33 26 33 c14 17 34 32 45 32 20 0 20 -1 -1 -30 l-22 -30 24
-38 23 -37 8 53 c8 46 11 52 33 52 16 0 84 45 197 130 l172 130 56 0 c103 0
118 34 109 233 -5 99 -7 111 -29 128 -22 18 -48 19 -617 19 l-593 0 -25 -22z
m574 -289 l0 -60 33 25 c19 15 47 26 62 26 l29 0 -39 -40 -39 -40 37 -37 37
-38 0 48 0 47 75 0 c41 0 75 -2 75 -4 0 -2 -31 -27 -69 -55 -82 -61 -114 -65
-156 -21 -36 37 -45 38 -45 1 0 -20 -6 -30 -20 -34 -11 -3 -23 -1 -26 4 -3 6
-25 7 -50 3 -74 -11 -124 24 -124 87 0 31 53 79 87 79 41 0 78 -27 62 -46 -9
-11 -7 -14 10 -14 19 0 21 5 21 65 0 58 2 65 20 65 18 0 20 -7 20 -61z m127
29 c-3 -8 -6 -5 -6 6 -1 11 2 17 5 13 3 -3 4 -12 1 -19z m34 13 c7 11 9 10 9
-3 0 -10 -7 -18 -15 -18 -8 0 -15 8 -14 18 0 12 2 13 6 3 5 -11 7 -11 14 0z"/>
<path d="M6890 3550 c-11 -7 -6 -10 20 -10 26 0 31 3 20 10 -8 5 -17 10 -20
10 -3 0 -12 -5 -20 -10z"/>
<path d="M6870 3506 c0 -13 28 -36 44 -36 15 0 4 19 -19 34 -21 14 -25 14 -25
2z"/>
<path d="M9210 3790 c-8 -5 -10 -10 -5 -10 6 0 3 -5 -5 -10 -13 -8 -12 -10 4
-10 11 0 16 -5 13 -14 -3 -8 3 -47 14 -87 10 -41 19 -75 19 -77 0 -1 -21 0
-47 2 -37 3 -53 11 -71 33 -16 19 -20 21 -13 7 10 -20 7 -22 -41 -27 -47 -6
-93 -27 -58 -27 10 0 11 -3 3 -11 -9 -9 -8 -16 3 -27 12 -11 13 -17 3 -23 -9
-5 -8 -11 4 -24 10 -9 17 -23 17 -31 0 -27 1 -29 23 -41 12 -7 48 -12 81 -13
47 0 57 -3 52 -15 -3 -8 -3 -15 0 -15 3 0 10 13 15 29 7 18 20 32 36 35 13 4
35 17 48 30 15 15 25 20 28 13 3 -9 8 -9 19 1 13 10 20 9 39 -8 13 -10 18 -19
12 -20 -20 0 -15 -18 9 -31 17 -9 23 -9 26 0 3 9 7 9 18 0 12 -10 13 -9 8 4
-6 16 -91 87 -105 87 -14 0 -19 33 -7 48 8 9 13 43 13 81 0 52 -6 77 -25 114
-24 45 -26 47 -70 47 -25 0 -52 -5 -60 -10z"/>
<path d="M7941 3564 c0 -11 3 -14 6 -6 3 7 2 16 -1 19 -3 4 -6 -2 -5 -13z"/>
<path d="M6697 3539 c-18 -25 -11 -56 13 -64 44 -14 75 32 44 66 -22 25 -39
24 -57 -2z"/>
<path d="M9356 3473 c-11 -12 -6 -19 14 -20 11 -1 20 2 20 7 0 10 -26 20 -34
13z"/>
<path d="M2416 3418 c-14 -19 -16 -79 -16 -448 0 -369 2 -429 16 -448 20 -29
76 -30 104 -2 19 19 20 33 20 450 0 417 -1 431 -20 450 -28 28 -84 27 -104 -2z"/>
<path d="M7772 2754 c-28 -19 -30 -74 -4 -97 42 -39 112 -9 112 46 0 55 -61
84 -108 51z"/>
<path d="M7772 2524 c-28 -19 -30 -74 -4 -97 25 -22 75 -21 95 1 25 27 22 78
-5 96 -12 9 -32 16 -43 16 -11 0 -31 -7 -43 -16z"/>
<path d="M2440 2417 c-38 -19 -49 -61 -23 -95 28 -37 66 -40 99 -7 20 20 24
32 19 53 -12 49 -53 70 -95 49z"/>
</g>
</svg>
